<mxfile host="app.diagrams.net" modified="2021-02-07T17:50:06.323Z" agent="5.0 (Windows)" etag="e1uA2y_pBqB_GawA2WHc" version="14.2.9" type="github">
  <diagram id="SgZQ3a2d4hKzm91UfPLO" name="Page-1">
    <mxGraphModel dx="697" dy="1731" grid="1" gridSize="10" guides="1" tooltips="1" connect="1" arrows="1" fold="1" page="1" pageScale="1" pageWidth="827" pageHeight="1169" math="0" shadow="0">
      <root>
        <mxCell id="0" />
        <mxCell id="1" parent="0" />
        <mxCell id="AkvK6rZVajDmbrrnvpNV-2" value="&lt;font style=&quot;font-size: 43px&quot;&gt;&lt;font style=&quot;font-size: 43px&quot;&gt;Coding Projects&lt;/font&gt;&lt;br&gt;&lt;/font&gt;" style="ellipse;whiteSpace=wrap;html=1;aspect=fixed;strokeWidth=6;fillColor=#f8cecc;strokeColor=#b85450;" parent="1" vertex="1">
          <mxGeometry x="390" y="210" width="190" height="190" as="geometry" />
        </mxCell>
        <mxCell id="_1KxbE9l1VcF-KKi8kDG-2" value="&lt;b&gt;&lt;font style=&quot;font-size: 21px&quot;&gt;SAS&lt;/font&gt;&lt;/b&gt;" style="rounded=0;whiteSpace=wrap;html=1;strokeWidth=6;" vertex="1" parent="1">
          <mxGeometry x="10" y="50" width="120" height="40" as="geometry" />
        </mxCell>
        <mxCell id="_1KxbE9l1VcF-KKi8kDG-4" value="" style="endArrow=classic;html=1;strokeWidth=5;entryX=1;entryY=1;entryDx=0;entryDy=0;" edge="1" parent="1" source="AkvK6rZVajDmbrrnvpNV-2" target="AkvK6rZVajDmbrrnvpNV-3">
          <mxGeometry width="50" height="50" relative="1" as="geometry">
            <mxPoint x="330" y="170" as="sourcePoint" />
            <mxPoint x="380" y="120" as="targetPoint" />
          </mxGeometry>
        </mxCell>
        <mxCell id="_1KxbE9l1VcF-KKi8kDG-8" value="" style="endArrow=classic;html=1;strokeWidth=5;exitX=0.194;exitY=0.291;exitDx=0;exitDy=0;entryX=1;entryY=0.5;entryDx=0;entryDy=0;exitPerimeter=0;" edge="1" parent="1" source="AkvK6rZVajDmbrrnvpNV-3" target="_1KxbE9l1VcF-KKi8kDG-2">
          <mxGeometry width="50" height="50" relative="1" as="geometry">
            <mxPoint x="330" y="120" as="sourcePoint" />
            <mxPoint x="140" y="30" as="targetPoint" />
          </mxGeometry>
        </mxCell>
        <mxCell id="_1KxbE9l1VcF-KKi8kDG-9" value="&lt;b&gt;&lt;font style=&quot;font-size: 21px&quot;&gt;SQL&lt;/font&gt;&lt;/b&gt;" style="rounded=0;whiteSpace=wrap;html=1;strokeWidth=6;" vertex="1" parent="1">
          <mxGeometry x="10" y="105" width="120" height="40" as="geometry" />
        </mxCell>
        <mxCell id="_1KxbE9l1VcF-KKi8kDG-10" value="" style="endArrow=classic;html=1;strokeWidth=5;entryX=1;entryY=0.5;entryDx=0;entryDy=0;" edge="1" parent="1" source="AkvK6rZVajDmbrrnvpNV-3" target="_1KxbE9l1VcF-KKi8kDG-9">
          <mxGeometry width="50" height="50" relative="1" as="geometry">
            <mxPoint x="216.36038969321066" y="86.1091270347398" as="sourcePoint" />
            <mxPoint x="130" y="50" as="targetPoint" />
          </mxGeometry>
        </mxCell>
        <mxCell id="_1KxbE9l1VcF-KKi8kDG-11" value="&lt;font size=&quot;1&quot;&gt;&lt;b style=&quot;font-size: 21px&quot;&gt;C&lt;/b&gt;&lt;/font&gt;" style="rounded=0;whiteSpace=wrap;html=1;strokeWidth=6;" vertex="1" parent="1">
          <mxGeometry x="10" y="160" width="120" height="40" as="geometry" />
        </mxCell>
        <mxCell id="_1KxbE9l1VcF-KKi8kDG-12" value="" style="endArrow=classic;html=1;strokeWidth=5;entryX=1;entryY=0.5;entryDx=0;entryDy=0;" edge="1" parent="1" target="_1KxbE9l1VcF-KKi8kDG-11" source="AkvK6rZVajDmbrrnvpNV-3">
          <mxGeometry width="50" height="50" relative="1" as="geometry">
            <mxPoint x="200" y="158" as="sourcePoint" />
            <mxPoint x="140" y="150" as="targetPoint" />
          </mxGeometry>
        </mxCell>
        <mxCell id="_1KxbE9l1VcF-KKi8kDG-13" value="&lt;font style=&quot;font-size: 11px&quot;&gt;&lt;b style=&quot;font-size: 21px&quot;&gt;C&lt;/b&gt;&lt;b&gt;&lt;font style=&quot;font-size: 21px&quot;&gt;#&lt;/font&gt;&lt;/b&gt;&lt;/font&gt;" style="rounded=0;whiteSpace=wrap;html=1;strokeWidth=6;" vertex="1" parent="1">
          <mxGeometry x="10" y="214" width="120" height="40" as="geometry" />
        </mxCell>
        <mxCell id="_1KxbE9l1VcF-KKi8kDG-14" value="" style="endArrow=classic;html=1;strokeWidth=5;entryX=1;entryY=0;entryDx=0;entryDy=0;exitX=0.3;exitY=0.827;exitDx=0;exitDy=0;exitPerimeter=0;" edge="1" parent="1" source="AkvK6rZVajDmbrrnvpNV-3" target="_1KxbE9l1VcF-KKi8kDG-13">
          <mxGeometry width="50" height="50" relative="1" as="geometry">
            <mxPoint x="246.36038969321066" y="176.9408729652602" as="sourcePoint" />
            <mxPoint x="160" y="203.05" as="targetPoint" />
          </mxGeometry>
        </mxCell>
        <mxCell id="_1KxbE9l1VcF-KKi8kDG-15" value="&lt;font style=&quot;font-size: 11px&quot;&gt;&lt;b style=&quot;font-size: 21px&quot;&gt;C&lt;/b&gt;&lt;b&gt;&lt;font style=&quot;font-size: 21px&quot;&gt;++&lt;/font&gt;&lt;/b&gt;&lt;/font&gt;" style="rounded=0;whiteSpace=wrap;html=1;strokeWidth=6;" vertex="1" parent="1">
          <mxGeometry x="10" y="270" width="120" height="40" as="geometry" />
        </mxCell>
        <mxCell id="_1KxbE9l1VcF-KKi8kDG-16" value="" style="endArrow=classic;html=1;strokeWidth=5;entryX=1;entryY=0;entryDx=0;entryDy=0;exitX=0.406;exitY=0.855;exitDx=0;exitDy=0;exitPerimeter=0;" edge="1" parent="1" target="_1KxbE9l1VcF-KKi8kDG-15" source="AkvK6rZVajDmbrrnvpNV-3">
          <mxGeometry width="50" height="50" relative="1" as="geometry">
            <mxPoint x="246.36038969321066" y="240.00087296526027" as="sourcePoint" />
            <mxPoint x="160" y="266.11" as="targetPoint" />
          </mxGeometry>
        </mxCell>
        <mxCell id="_1KxbE9l1VcF-KKi8kDG-19" value="&lt;b&gt;&lt;font style=&quot;font-size: 21px&quot;&gt;R&lt;/font&gt;&lt;/b&gt;" style="rounded=0;whiteSpace=wrap;html=1;strokeWidth=6;" vertex="1" parent="1">
          <mxGeometry x="10" width="120" height="40" as="geometry" />
        </mxCell>
        <mxCell id="_1KxbE9l1VcF-KKi8kDG-20" value="" style="endArrow=classic;html=1;strokeWidth=5;exitX=0.328;exitY=0.145;exitDx=0;exitDy=0;entryX=1;entryY=0.5;entryDx=0;entryDy=0;exitPerimeter=0;" edge="1" parent="1" source="AkvK6rZVajDmbrrnvpNV-3">
          <mxGeometry width="50" height="50" relative="1" as="geometry">
            <mxPoint x="216.36038969321066" y="36.109127034739686" as="sourcePoint" />
            <mxPoint x="130" y="20" as="targetPoint" />
          </mxGeometry>
        </mxCell>
        <mxCell id="_1KxbE9l1VcF-KKi8kDG-21" value="&lt;b&gt;&lt;font style=&quot;font-size: 21px&quot;&gt;Javascript&lt;/font&gt;&lt;/b&gt;" style="rounded=0;whiteSpace=wrap;html=1;strokeWidth=6;" vertex="1" parent="1">
          <mxGeometry x="10" y="322.97" width="120" height="40" as="geometry" />
        </mxCell>
        <mxCell id="_1KxbE9l1VcF-KKi8kDG-22" value="" style="endArrow=classic;html=1;strokeWidth=5;entryX=1;entryY=0;entryDx=0;entryDy=0;exitX=0.494;exitY=0.891;exitDx=0;exitDy=0;exitPerimeter=0;" edge="1" parent="1" target="_1KxbE9l1VcF-KKi8kDG-21" source="AkvK6rZVajDmbrrnvpNV-3">
          <mxGeometry width="50" height="50" relative="1" as="geometry">
            <mxPoint x="263.08000000000004" y="217.01999999999995" as="sourcePoint" />
            <mxPoint x="160" y="319.08000000000004" as="targetPoint" />
          </mxGeometry>
        </mxCell>
        <mxCell id="AkvK6rZVajDmbrrnvpNV-3" value="&lt;font style=&quot;font-size: 23px&quot;&gt;New Languages&lt;/font&gt;" style="ellipse;whiteSpace=wrap;html=1;strokeWidth=6;fillColor=#fff2cc;strokeColor=#d6b656;" parent="1" vertex="1">
          <mxGeometry x="190" y="70" width="180" height="110" as="geometry" />
        </mxCell>
      </root>
    </mxGraphModel>
  </diagram>
</mxfile>
